<?xml version="1.0" encoding="iso-8859-1"?>
<!-- Generator: Adobe Illustrator 18.0.0, SVG Export Plug-In . SVG Version: 6.00 Build 0)  -->
<!DOCTYPE svg PUBLIC "-//W3C//DTD SVG 1.1//EN" "http://www.w3.org/Graphics/SVG/1.1/DTD/svg11.dtd">
<svg version="1.1" id="Capa_1" xmlns="http://www.w3.org/2000/svg" xmlns:xlink="http://www.w3.org/1999/xlink" x="0px" y="0px"
	 viewBox="0 0 224.872 224.872" style="enable-background:new 0 0 224.872 224.872;" xml:space="preserve">
<g>
	<path d="M222.675,181.75l-60.626-60.626l6.439-6.439c2.929-2.929,2.929-7.678,0-10.606l-20.312-20.312l16.33-16.33
		c1.953-1.953,1.953-5.119,0-7.071c-1.951-1.952-5.119-1.952-7.07,0l-16.331,16.331l-20.311-20.311
		c-1.407-1.407-3.314-2.197-5.304-2.197s-3.896,0.79-5.304,2.197l-6.438,6.438L43.122,2.197c-2.93-2.929-7.678-2.929-10.607,0
		L2.197,32.515c-2.929,2.929-2.929,7.678,0,10.606L65.475,106.4c-1.644,4.469-2.508,9.237-2.508,14.14
		c0,10.921,4.253,21.189,11.974,28.909l0.479,0.48c7.723,7.723,17.99,11.976,28.911,11.976c4.903,0,9.672-0.864,14.14-2.507
		l63.278,63.277c1.465,1.464,3.385,2.197,5.304,2.197s3.839-0.732,5.304-2.197l30.318-30.318
		C225.604,189.427,225.604,184.678,222.675,181.75z M206.765,187.053l-6.32,6.321l-55.323-55.323l6.321-6.321L206.765,187.053z
		 M37.819,18.107l55.323,55.323l-6.321,6.321L31.498,24.427L37.819,18.107z M24.427,31.498L79.75,86.821l-6.32,6.321L18.107,37.818
		L24.427,31.498z M86.029,139.325l-0.479-0.48c-4.89-4.89-7.582-11.391-7.582-18.305s2.692-13.416,7.583-18.305l29.94-29.941
		l37.087,37.087l-6.434,6.434c-0.002,0.002-0.004,0.003-0.005,0.005l-23.504,23.505c-4.888,4.888-11.388,7.58-18.302,7.58
		S90.916,144.212,86.029,139.325z M187.053,206.765l-55.323-55.323l1.502-1.503c0.004-0.004,0.008-0.007,0.011-0.01l4.807-4.807
		l55.323,55.323L187.053,206.765z"/>
</g>
<g>
</g>
<g>
</g>
<g>
</g>
<g>
</g>
<g>
</g>
<g>
</g>
<g>
</g>
<g>
</g>
<g>
</g>
<g>
</g>
<g>
</g>
<g>
</g>
<g>
</g>
<g>
</g>
<g>
</g>
</svg>
